  0
SECTION
  2
HEADER
  9
$ACADVER
  1
AC1009
  9
$INSUNITS
 70
     1
 9
$MEASUREMENT
 70
    0
  0
ENDSEC
  0
SECTION
  2
TABLES
  0
TABLE
  2
LAYER
 70
     8
  0
LAYER
  2
0
 62
     7
 70
0
  6
CONTINUOUS
  0
LAYER
  2
1
 62
     1
 70
0
  6
CONTINUOUS
  0
LAYER
  2
2
 62
     2
 70
0
  6
CONTINUOUS
  0
LAYER
  2
3
 62
     3
 70
0
  6
CONTINUOUS
  0
LAYER
  2
4
 62
     4
 70
0
  6
CONTINUOUS
  0
LAYER
  2
5
 62
     5
 70
0
  6
CONTINUOUS
  0
LAYER
  2
6
 62
     6
 70
0
  6
CONTINUOUS
  0
LAYER
  2
7
 62
     7
 70
0
  6
CONTINUOUS
  0
ENDTAB
  0
TABLE
  2
STYLE
 70
     1
  0
STYLE
 70
     0
  2
STANDARD
  3
TXT
 40
0.00
 41
1.00
 42
1.00
 50
0.00
 71
     0
  0
ENDTAB
  0
ENDSEC
  0
SECTION
  2
BLOCKS
  0
BLOCK
  8
0
  2
EPAD
 70
0
 10
0.0
 20
0.0
  0
POLYLINE
  8
0
 66
1
 70
1
 40
0.5
 41
0.5
  0
VERTEX
  8
0
 10
-0.25
 20
0.0
 42
1.0
  0
VERTEX
  8
0
 10
0.25
 20
0.0
 42
1.0
  0
SEQEND
  8
0
  0
ENDBLK
  8
0
  0
BLOCK
  8
0
  2
RPAD
 70
0
 10
0.0
 20
0.0
  0
TRACE
  8
0
 10
-0.5
 20
-0.5
 11
-0.5
 21
0.5
 12
0.5
 22
-0.5
 13
0.5
 23
0.5
  0
ENDBLK
  8
0
  0
ENDSEC
0
SECTION
2
ENTITIES
0
POLYLINE
8
1
66
1
40
0.008000
41
0.008000
0
VERTEX
8
1
10
0.750000
20
1.900000
0
VERTEX
8
1
10
0.750000
20
1.850000
0
SEQEND
8
1
0
POLYLINE
8
1
66
1
40
0.008000
41
0.008000
0
VERTEX
8
1
10
0.725000
20
1.875000
0
VERTEX
8
1
10
0.775000
20
1.875000
0
SEQEND
8
1
0
POLYLINE
8
1
66
1
40
0.008000
41
0.008000
0
VERTEX
8
1
10
0.732322
20
1.892678
0
VERTEX
8
1
10
0.767678
20
1.857322
0
SEQEND
8
1
0
POLYLINE
8
1
66
1
40
0.008000
41
0.008000
0
VERTEX
8
1
10
0.732322
20
1.857322
0
VERTEX
8
1
10
0.767678
20
1.892678
0
SEQEND
8
1
0
POLYLINE
8
1
66
1
40
0.008000
41
0.008000
0
VERTEX
8
1
10
0.750000
20
1.800000
0
VERTEX
8
1
10
0.750000
20
1.750000
0
SEQEND
8
1
0
POLYLINE
8
1
66
1
40
0.008000
41
0.008000
0
VERTEX
8
1
10
0.725000
20
1.775000
0
VERTEX
8
1
10
0.775000
20
1.775000
0
SEQEND
8
1
0
POLYLINE
8
1
66
1
40
0.008000
41
0.008000
0
VERTEX
8
1
10
0.732322
20
1.792678
0
VERTEX
8
1
10
0.767678
20
1.757322
0
SEQEND
8
1
0
POLYLINE
8
1
66
1
40
0.008000
41
0.008000
0
VERTEX
8
1
10
0.732322
20
1.757322
0
VERTEX
8
1
10
0.767678
20
1.792678
0
SEQEND
8
1
0
POLYLINE
8
1
66
1
40
0.008000
41
0.008000
0
VERTEX
8
1
10
0.750000
20
1.700000
0
VERTEX
8
1
10
0.750000
20
1.650000
0
SEQEND
8
1
0
POLYLINE
8
1
66
1
40
0.008000
41
0.008000
0
VERTEX
8
1
10
0.725000
20
1.675000
0
VERTEX
8
1
10
0.775000
20
1.675000
0
SEQEND
8
1
0
POLYLINE
8
1
66
1
40
0.008000
41
0.008000
0
VERTEX
8
1
10
0.732322
20
1.692678
0
VERTEX
8
1
10
0.767678
20
1.657322
0
SEQEND
8
1
0
POLYLINE
8
1
66
1
40
0.008000
41
0.008000
0
VERTEX
8
1
10
0.732322
20
1.657322
0
VERTEX
8
1
10
0.767678
20
1.692678
0
SEQEND
8
1
0
POLYLINE
8
1
66
1
40
0.008000
41
0.008000
0
VERTEX
8
1
10
0.750000
20
1.600000
0
VERTEX
8
1
10
0.750000
20
1.550000
0
SEQEND
8
1
0
POLYLINE
8
1
66
1
40
0.008000
41
0.008000
0
VERTEX
8
1
10
0.725000
20
1.575000
0
VERTEX
8
1
10
0.775000
20
1.575000
0
SEQEND
8
1
0
POLYLINE
8
1
66
1
40
0.008000
41
0.008000
0
VERTEX
8
1
10
0.732322
20
1.592678
0
VERTEX
8
1
10
0.767678
20
1.557322
0
SEQEND
8
1
0
POLYLINE
8
1
66
1
40
0.008000
41
0.008000
0
VERTEX
8
1
10
0.732322
20
1.557322
0
VERTEX
8
1
10
0.767678
20
1.592678
0
SEQEND
8
1
0
POLYLINE
8
1
66
1
40
0.008000
41
0.008000
0
VERTEX
8
1
10
0.750000
20
1.500000
0
VERTEX
8
1
10
0.750000
20
1.450000
0
SEQEND
8
1
0
POLYLINE
8
1
66
1
40
0.008000
41
0.008000
0
VERTEX
8
1
10
0.725000
20
1.475000
0
VERTEX
8
1
10
0.775000
20
1.475000
0
SEQEND
8
1
0
POLYLINE
8
1
66
1
40
0.008000
41
0.008000
0
VERTEX
8
1
10
0.732322
20
1.492678
0
VERTEX
8
1
10
0.767678
20
1.457322
0
SEQEND
8
1
0
POLYLINE
8
1
66
1
40
0.008000
41
0.008000
0
VERTEX
8
1
10
0.732322
20
1.457322
0
VERTEX
8
1
10
0.767678
20
1.492678
0
SEQEND
8
1
0
POLYLINE
8
1
66
1
40
0.008000
41
0.008000
0
VERTEX
8
1
10
0.750000
20
1.400000
0
VERTEX
8
1
10
0.750000
20
1.350000
0
SEQEND
8
1
0
POLYLINE
8
1
66
1
40
0.008000
41
0.008000
0
VERTEX
8
1
10
0.725000
20
1.375000
0
VERTEX
8
1
10
0.775000
20
1.375000
0
SEQEND
8
1
0
POLYLINE
8
1
66
1
40
0.008000
41
0.008000
0
VERTEX
8
1
10
0.732322
20
1.392678
0
VERTEX
8
1
10
0.767678
20
1.357322
0
SEQEND
8
1
0
POLYLINE
8
1
66
1
40
0.008000
41
0.008000
0
VERTEX
8
1
10
0.732322
20
1.357322
0
VERTEX
8
1
10
0.767678
20
1.392678
0
SEQEND
8
1
0
POLYLINE
8
1
66
1
40
0.008000
41
0.008000
0
VERTEX
8
1
10
0.750000
20
1.300000
0
VERTEX
8
1
10
0.750000
20
1.250000
0
SEQEND
8
1
0
POLYLINE
8
1
66
1
40
0.008000
41
0.008000
0
VERTEX
8
1
10
0.725000
20
1.275000
0
VERTEX
8
1
10
0.775000
20
1.275000
0
SEQEND
8
1
0
POLYLINE
8
1
66
1
40
0.008000
41
0.008000
0
VERTEX
8
1
10
0.732322
20
1.292678
0
VERTEX
8
1
10
0.767678
20
1.257322
0
SEQEND
8
1
0
POLYLINE
8
1
66
1
40
0.008000
41
0.008000
0
VERTEX
8
1
10
0.732322
20
1.257322
0
VERTEX
8
1
10
0.767678
20
1.292678
0
SEQEND
8
1
0
POLYLINE
8
1
66
1
40
0.008000
41
0.008000
0
VERTEX
8
1
10
0.750000
20
1.200000
0
VERTEX
8
1
10
0.750000
20
1.150000
0
SEQEND
8
1
0
POLYLINE
8
1
66
1
40
0.008000
41
0.008000
0
VERTEX
8
1
10
0.725000
20
1.175000
0
VERTEX
8
1
10
0.775000
20
1.175000
0
SEQEND
8
1
0
POLYLINE
8
1
66
1
40
0.008000
41
0.008000
0
VERTEX
8
1
10
0.732322
20
1.192678
0
VERTEX
8
1
10
0.767678
20
1.157322
0
SEQEND
8
1
0
POLYLINE
8
1
66
1
40
0.008000
41
0.008000
0
VERTEX
8
1
10
0.732322
20
1.157322
0
VERTEX
8
1
10
0.767678
20
1.192678
0
SEQEND
8
1
0
POLYLINE
8
1
66
1
40
0.008000
41
0.008000
0
VERTEX
8
1
10
0.450000
20
1.200000
0
VERTEX
8
1
10
0.450000
20
1.150000
0
SEQEND
8
1
0
POLYLINE
8
1
66
1
40
0.008000
41
0.008000
0
VERTEX
8
1
10
0.425000
20
1.175000
0
VERTEX
8
1
10
0.475000
20
1.175000
0
SEQEND
8
1
0
POLYLINE
8
1
66
1
40
0.008000
41
0.008000
0
VERTEX
8
1
10
0.432322
20
1.192678
0
VERTEX
8
1
10
0.467678
20
1.157322
0
SEQEND
8
1
0
POLYLINE
8
1
66
1
40
0.008000
41
0.008000
0
VERTEX
8
1
10
0.432322
20
1.157322
0
VERTEX
8
1
10
0.467678
20
1.192678
0
SEQEND
8
1
0
POLYLINE
8
1
66
1
40
0.008000
41
0.008000
0
VERTEX
8
1
10
0.450000
20
1.300000
0
VERTEX
8
1
10
0.450000
20
1.250000
0
SEQEND
8
1
0
POLYLINE
8
1
66
1
40
0.008000
41
0.008000
0
VERTEX
8
1
10
0.425000
20
1.275000
0
VERTEX
8
1
10
0.475000
20
1.275000
0
SEQEND
8
1
0
POLYLINE
8
1
66
1
40
0.008000
41
0.008000
0
VERTEX
8
1
10
0.432322
20
1.292678
0
VERTEX
8
1
10
0.467678
20
1.257322
0
SEQEND
8
1
0
POLYLINE
8
1
66
1
40
0.008000
41
0.008000
0
VERTEX
8
1
10
0.432322
20
1.257322
0
VERTEX
8
1
10
0.467678
20
1.292678
0
SEQEND
8
1
0
POLYLINE
8
1
66
1
40
0.008000
41
0.008000
0
VERTEX
8
1
10
0.450000
20
1.400000
0
VERTEX
8
1
10
0.450000
20
1.350000
0
SEQEND
8
1
0
POLYLINE
8
1
66
1
40
0.008000
41
0.008000
0
VERTEX
8
1
10
0.425000
20
1.375000
0
VERTEX
8
1
10
0.475000
20
1.375000
0
SEQEND
8
1
0
POLYLINE
8
1
66
1
40
0.008000
41
0.008000
0
VERTEX
8
1
10
0.432322
20
1.392678
0
VERTEX
8
1
10
0.467678
20
1.357322
0
SEQEND
8
1
0
POLYLINE
8
1
66
1
40
0.008000
41
0.008000
0
VERTEX
8
1
10
0.432322
20
1.357322
0
VERTEX
8
1
10
0.467678
20
1.392678
0
SEQEND
8
1
0
POLYLINE
8
1
66
1
40
0.008000
41
0.008000
0
VERTEX
8
1
10
0.450000
20
1.500000
0
VERTEX
8
1
10
0.450000
20
1.450000
0
SEQEND
8
1
0
POLYLINE
8
1
66
1
40
0.008000
41
0.008000
0
VERTEX
8
1
10
0.425000
20
1.475000
0
VERTEX
8
1
10
0.475000
20
1.475000
0
SEQEND
8
1
0
POLYLINE
8
1
66
1
40
0.008000
41
0.008000
0
VERTEX
8
1
10
0.432322
20
1.492678
0
VERTEX
8
1
10
0.467678
20
1.457322
0
SEQEND
8
1
0
POLYLINE
8
1
66
1
40
0.008000
41
0.008000
0
VERTEX
8
1
10
0.432322
20
1.457322
0
VERTEX
8
1
10
0.467678
20
1.492678
0
SEQEND
8
1
0
POLYLINE
8
1
66
1
40
0.008000
41
0.008000
0
VERTEX
8
1
10
0.450000
20
1.600000
0
VERTEX
8
1
10
0.450000
20
1.550000
0
SEQEND
8
1
0
POLYLINE
8
1
66
1
40
0.008000
41
0.008000
0
VERTEX
8
1
10
0.425000
20
1.575000
0
VERTEX
8
1
10
0.475000
20
1.575000
0
SEQEND
8
1
0
POLYLINE
8
1
66
1
40
0.008000
41
0.008000
0
VERTEX
8
1
10
0.432322
20
1.592678
0
VERTEX
8
1
10
0.467678
20
1.557322
0
SEQEND
8
1
0
POLYLINE
8
1
66
1
40
0.008000
41
0.008000
0
VERTEX
8
1
10
0.432322
20
1.557322
0
VERTEX
8
1
10
0.467678
20
1.592678
0
SEQEND
8
1
0
POLYLINE
8
1
66
1
40
0.008000
41
0.008000
0
VERTEX
8
1
10
0.450000
20
1.700000
0
VERTEX
8
1
10
0.450000
20
1.650000
0
SEQEND
8
1
0
POLYLINE
8
1
66
1
40
0.008000
41
0.008000
0
VERTEX
8
1
10
0.425000
20
1.675000
0
VERTEX
8
1
10
0.475000
20
1.675000
0
SEQEND
8
1
0
POLYLINE
8
1
66
1
40
0.008000
41
0.008000
0
VERTEX
8
1
10
0.432322
20
1.692678
0
VERTEX
8
1
10
0.467678
20
1.657322
0
SEQEND
8
1
0
POLYLINE
8
1
66
1
40
0.008000
41
0.008000
0
VERTEX
8
1
10
0.432322
20
1.657322
0
VERTEX
8
1
10
0.467678
20
1.692678
0
SEQEND
8
1
0
POLYLINE
8
1
66
1
40
0.008000
41
0.008000
0
VERTEX
8
1
10
0.450000
20
1.800000
0
VERTEX
8
1
10
0.450000
20
1.750000
0
SEQEND
8
1
0
POLYLINE
8
1
66
1
40
0.008000
41
0.008000
0
VERTEX
8
1
10
0.425000
20
1.775000
0
VERTEX
8
1
10
0.475000
20
1.775000
0
SEQEND
8
1
0
POLYLINE
8
1
66
1
40
0.008000
41
0.008000
0
VERTEX
8
1
10
0.432322
20
1.792678
0
VERTEX
8
1
10
0.467678
20
1.757322
0
SEQEND
8
1
0
POLYLINE
8
1
66
1
40
0.008000
41
0.008000
0
VERTEX
8
1
10
0.432322
20
1.757322
0
VERTEX
8
1
10
0.467678
20
1.792678
0
SEQEND
8
1
0
POLYLINE
8
1
66
1
40
0.008000
41
0.008000
0
VERTEX
8
1
10
0.450000
20
1.900000
0
VERTEX
8
1
10
0.450000
20
1.850000
0
SEQEND
8
1
0
POLYLINE
8
1
66
1
40
0.008000
41
0.008000
0
VERTEX
8
1
10
0.425000
20
1.875000
0
VERTEX
8
1
10
0.475000
20
1.875000
0
SEQEND
8
1
0
POLYLINE
8
1
66
1
40
0.008000
41
0.008000
0
VERTEX
8
1
10
0.432322
20
1.892678
0
VERTEX
8
1
10
0.467678
20
1.857322
0
SEQEND
8
1
0
POLYLINE
8
1
66
1
40
0.008000
41
0.008000
0
VERTEX
8
1
10
0.432322
20
1.857322
0
VERTEX
8
1
10
0.467678
20
1.892678
0
SEQEND
8
1
0
CIRCLE
8
2
10
0.800000
20
0.600000
40
0.025000
0
POLYLINE
8
1
66
1
40
0.008000
41
0.008000
0
VERTEX
8
1
10
0.782322
20
0.617678
0
VERTEX
8
1
10
0.817678
20
0.582322
0
SEQEND
8
1
0
POLYLINE
8
1
66
1
40
0.008000
41
0.008000
0
VERTEX
8
1
10
0.782322
20
0.582322
0
VERTEX
8
1
10
0.817678
20
0.617678
0
SEQEND
8
1
0
CIRCLE
8
2
10
0.700000
20
0.600000
40
0.025000
0
POLYLINE
8
1
66
1
40
0.008000
41
0.008000
0
VERTEX
8
1
10
0.682322
20
0.617678
0
VERTEX
8
1
10
0.717678
20
0.582322
0
SEQEND
8
1
0
POLYLINE
8
1
66
1
40
0.008000
41
0.008000
0
VERTEX
8
1
10
0.682322
20
0.582322
0
VERTEX
8
1
10
0.717678
20
0.617678
0
SEQEND
8
1
0
CIRCLE
8
2
10
0.600000
20
0.600000
40
0.025000
0
POLYLINE
8
1
66
1
40
0.008000
41
0.008000
0
VERTEX
8
1
10
0.582322
20
0.617678
0
VERTEX
8
1
10
0.617678
20
0.582322
0
SEQEND
8
1
0
POLYLINE
8
1
66
1
40
0.008000
41
0.008000
0
VERTEX
8
1
10
0.582322
20
0.582322
0
VERTEX
8
1
10
0.617678
20
0.617678
0
SEQEND
8
1
0
CIRCLE
8
2
10
0.277559
20
1.578740
40
0.025000
0
POLYLINE
8
1
66
1
40
0.008000
41
0.008000
0
VERTEX
8
1
10
0.259881
20
1.596418
0
VERTEX
8
1
10
0.295237
20
1.561063
0
SEQEND
8
1
0
POLYLINE
8
1
66
1
40
0.008000
41
0.008000
0
VERTEX
8
1
10
0.259881
20
1.561063
0
VERTEX
8
1
10
0.295237
20
1.596418
0
SEQEND
8
1
0
CIRCLE
8
2
10
0.177559
20
1.578740
40
0.025000
0
POLYLINE
8
1
66
1
40
0.008000
41
0.008000
0
VERTEX
8
1
10
0.177559
20
1.603740
0
VERTEX
8
1
10
0.177559
20
1.553740
0
SEQEND
8
1
0
POLYLINE
8
1
66
1
40
0.008000
41
0.008000
0
VERTEX
8
1
10
0.152559
20
1.578740
0
VERTEX
8
1
10
0.202559
20
1.578740
0
SEQEND
8
1
0
CIRCLE
8
2
10
0.277559
20
1.478740
40
0.025000
0
POLYLINE
8
1
66
1
40
0.008000
41
0.008000
0
VERTEX
8
1
10
0.277559
20
1.503740
0
VERTEX
8
1
10
0.277559
20
1.453740
0
SEQEND
8
1
0
POLYLINE
8
1
66
1
40
0.008000
41
0.008000
0
VERTEX
8
1
10
0.252559
20
1.478740
0
VERTEX
8
1
10
0.302559
20
1.478740
0
SEQEND
8
1
0
CIRCLE
8
2
10
0.177559
20
1.478740
40
0.025000
0
POLYLINE
8
1
66
1
40
0.008000
41
0.008000
0
VERTEX
8
1
10
0.177559
20
1.503740
0
VERTEX
8
1
10
0.177559
20
1.453740
0
SEQEND
8
1
0
POLYLINE
8
1
66
1
40
0.008000
41
0.008000
0
VERTEX
8
1
10
0.152559
20
1.478740
0
VERTEX
8
1
10
0.202559
20
1.478740
0
SEQEND
8
1
0
CIRCLE
8
2
10
0.277559
20
1.378740
40
0.025000
0
POLYLINE
8
1
66
1
40
0.008000
41
0.008000
0
VERTEX
8
1
10
0.277559
20
1.403740
0
VERTEX
8
1
10
0.277559
20
1.353740
0
SEQEND
8
1
0
POLYLINE
8
1
66
1
40
0.008000
41
0.008000
0
VERTEX
8
1
10
0.252559
20
1.378740
0
VERTEX
8
1
10
0.302559
20
1.378740
0
SEQEND
8
1
0
CIRCLE
8
2
10
0.177559
20
1.378740
40
0.025000
0
POLYLINE
8
1
66
1
40
0.008000
41
0.008000
0
VERTEX
8
1
10
0.177559
20
1.403740
0
VERTEX
8
1
10
0.177559
20
1.353740
0
SEQEND
8
1
0
POLYLINE
8
1
66
1
40
0.008000
41
0.008000
0
VERTEX
8
1
10
0.152559
20
1.378740
0
VERTEX
8
1
10
0.202559
20
1.378740
0
SEQEND
8
1
0
CIRCLE
8
2
10
0.277559
20
1.278740
40
0.025000
0
POLYLINE
8
1
66
1
40
0.008000
41
0.008000
0
VERTEX
8
1
10
0.277559
20
1.303740
0
VERTEX
8
1
10
0.277559
20
1.253740
0
SEQEND
8
1
0
POLYLINE
8
1
66
1
40
0.008000
41
0.008000
0
VERTEX
8
1
10
0.252559
20
1.278740
0
VERTEX
8
1
10
0.302559
20
1.278740
0
SEQEND
8
1
0
CIRCLE
8
2
10
0.177559
20
1.278740
40
0.025000
0
POLYLINE
8
1
66
1
40
0.008000
41
0.008000
0
VERTEX
8
1
10
0.177559
20
1.303740
0
VERTEX
8
1
10
0.177559
20
1.253740
0
SEQEND
8
1
0
POLYLINE
8
1
66
1
40
0.008000
41
0.008000
0
VERTEX
8
1
10
0.152559
20
1.278740
0
VERTEX
8
1
10
0.202559
20
1.278740
0
SEQEND
8
1
0
CIRCLE
8
2
10
0.277559
20
1.178740
40
0.025000
0
POLYLINE
8
1
66
1
40
0.008000
41
0.008000
0
VERTEX
8
1
10
0.277559
20
1.203740
0
VERTEX
8
1
10
0.277559
20
1.153740
0
SEQEND
8
1
0
POLYLINE
8
1
66
1
40
0.008000
41
0.008000
0
VERTEX
8
1
10
0.252559
20
1.178740
0
VERTEX
8
1
10
0.302559
20
1.178740
0
SEQEND
8
1
0
CIRCLE
8
2
10
0.177559
20
1.178740
40
0.025000
0
POLYLINE
8
1
66
1
40
0.008000
41
0.008000
0
VERTEX
8
1
10
0.177559
20
1.203740
0
VERTEX
8
1
10
0.177559
20
1.153740
0
SEQEND
8
1
0
POLYLINE
8
1
66
1
40
0.008000
41
0.008000
0
VERTEX
8
1
10
0.152559
20
1.178740
0
VERTEX
8
1
10
0.202559
20
1.178740
0
SEQEND
8
1
0
CIRCLE
8
2
10
0.277559
20
1.078740
40
0.025000
0
POLYLINE
8
1
66
1
40
0.008000
41
0.008000
0
VERTEX
8
1
10
0.277559
20
1.103740
0
VERTEX
8
1
10
0.277559
20
1.053740
0
SEQEND
8
1
0
POLYLINE
8
1
66
1
40
0.008000
41
0.008000
0
VERTEX
8
1
10
0.252559
20
1.078740
0
VERTEX
8
1
10
0.302559
20
1.078740
0
SEQEND
8
1
0
CIRCLE
8
2
10
0.177559
20
1.078740
40
0.025000
0
POLYLINE
8
1
66
1
40
0.008000
41
0.008000
0
VERTEX
8
1
10
0.177559
20
1.103740
0
VERTEX
8
1
10
0.177559
20
1.053740
0
SEQEND
8
1
0
POLYLINE
8
1
66
1
40
0.008000
41
0.008000
0
VERTEX
8
1
10
0.152559
20
1.078740
0
VERTEX
8
1
10
0.202559
20
1.078740
0
SEQEND
8
1
0
CIRCLE
8
2
10
0.277559
20
0.978740
40
0.025000
0
POLYLINE
8
1
66
1
40
0.008000
41
0.008000
0
VERTEX
8
1
10
0.277559
20
1.003740
0
VERTEX
8
1
10
0.277559
20
0.953740
0
SEQEND
8
1
0
POLYLINE
8
1
66
1
40
0.008000
41
0.008000
0
VERTEX
8
1
10
0.252559
20
0.978740
0
VERTEX
8
1
10
0.302559
20
0.978740
0
SEQEND
8
1
0
CIRCLE
8
2
10
0.177559
20
0.978740
40
0.025000
0
POLYLINE
8
1
66
1
40
0.008000
41
0.008000
0
VERTEX
8
1
10
0.177559
20
1.003740
0
VERTEX
8
1
10
0.177559
20
0.953740
0
SEQEND
8
1
0
POLYLINE
8
1
66
1
40
0.008000
41
0.008000
0
VERTEX
8
1
10
0.152559
20
0.978740
0
VERTEX
8
1
10
0.202559
20
0.978740
0
SEQEND
8
1
0
CIRCLE
8
2
10
0.277559
20
0.878740
40
0.025000
0
POLYLINE
8
1
66
1
40
0.008000
41
0.008000
0
VERTEX
8
1
10
0.277559
20
0.903740
0
VERTEX
8
1
10
0.277559
20
0.853740
0
SEQEND
8
1
0
POLYLINE
8
1
66
1
40
0.008000
41
0.008000
0
VERTEX
8
1
10
0.252559
20
0.878740
0
VERTEX
8
1
10
0.302559
20
0.878740
0
SEQEND
8
1
0
CIRCLE
8
2
10
0.177559
20
0.878740
40
0.025000
0
POLYLINE
8
1
66
1
40
0.008000
41
0.008000
0
VERTEX
8
1
10
0.177559
20
0.903740
0
VERTEX
8
1
10
0.177559
20
0.853740
0
SEQEND
8
1
0
POLYLINE
8
1
66
1
40
0.008000
41
0.008000
0
VERTEX
8
1
10
0.152559
20
0.878740
0
VERTEX
8
1
10
0.202559
20
0.878740
0
SEQEND
8
1
0
CIRCLE
8
2
10
0.277559
20
0.778740
40
0.025000
0
POLYLINE
8
1
66
1
40
0.008000
41
0.008000
0
VERTEX
8
1
10
0.277559
20
0.803740
0
VERTEX
8
1
10
0.277559
20
0.753740
0
SEQEND
8
1
0
POLYLINE
8
1
66
1
40
0.008000
41
0.008000
0
VERTEX
8
1
10
0.252559
20
0.778740
0
VERTEX
8
1
10
0.302559
20
0.778740
0
SEQEND
8
1
0
CIRCLE
8
2
10
0.177559
20
0.778740
40
0.025000
0
POLYLINE
8
1
66
1
40
0.008000
41
0.008000
0
VERTEX
8
1
10
0.177559
20
0.803740
0
VERTEX
8
1
10
0.177559
20
0.753740
0
SEQEND
8
1
0
POLYLINE
8
1
66
1
40
0.008000
41
0.008000
0
VERTEX
8
1
10
0.152559
20
0.778740
0
VERTEX
8
1
10
0.202559
20
0.778740
0
SEQEND
8
1
0
CIRCLE
8
2
10
0.277559
20
0.678740
40
0.025000
0
POLYLINE
8
1
66
1
40
0.008000
41
0.008000
0
VERTEX
8
1
10
0.277559
20
0.703740
0
VERTEX
8
1
10
0.277559
20
0.653740
0
SEQEND
8
1
0
POLYLINE
8
1
66
1
40
0.008000
41
0.008000
0
VERTEX
8
1
10
0.252559
20
0.678740
0
VERTEX
8
1
10
0.302559
20
0.678740
0
SEQEND
8
1
0
CIRCLE
8
2
10
0.177559
20
0.678740
40
0.025000
0
POLYLINE
8
1
66
1
40
0.008000
41
0.008000
0
VERTEX
8
1
10
0.177559
20
0.703740
0
VERTEX
8
1
10
0.177559
20
0.653740
0
SEQEND
8
1
0
POLYLINE
8
1
66
1
40
0.008000
41
0.008000
0
VERTEX
8
1
10
0.152559
20
0.678740
0
VERTEX
8
1
10
0.202559
20
0.678740
0
SEQEND
8
1
0
POLYLINE
8
1
66
1
40
0.008000
41
0.008000
0
VERTEX
8
1
10
0.110275
20
2.135788
0
VERTEX
8
1
10
0.145630
20
2.100433
0
SEQEND
8
1
0
POLYLINE
8
1
66
1
40
0.008000
41
0.008000
0
VERTEX
8
1
10
0.110275
20
2.100433
0
VERTEX
8
1
10
0.145630
20
2.135788
0
SEQEND
8
1
0
POLYLINE
8
1
66
1
40
0.008000
41
0.008000
0
VERTEX
8
1
10
0.110275
20
0.131851
0
VERTEX
8
1
10
0.145630
20
0.096496
0
SEQEND
8
1
0
POLYLINE
8
1
66
1
40
0.008000
41
0.008000
0
VERTEX
8
1
10
0.110275
20
0.096496
0
VERTEX
8
1
10
0.145630
20
0.131851
0
SEQEND
8
1
0
POLYLINE
8
1
66
1
40
0.008000
41
0.008000
0
VERTEX
8
1
10
0.850000
20
2.000000
0
VERTEX
8
1
10
0.850000
20
1.950000
0
SEQEND
8
1
0
POLYLINE
8
1
66
1
40
0.008000
41
0.008000
0
VERTEX
8
1
10
0.825000
20
1.975000
0
VERTEX
8
1
10
0.875000
20
1.975000
0
SEQEND
8
1
0
POLYLINE
8
1
66
1
40
0.008000
41
0.008000
0
VERTEX
8
1
10
0.832322
20
1.992678
0
VERTEX
8
1
10
0.867678
20
1.957322
0
SEQEND
8
1
0
POLYLINE
8
1
66
1
40
0.008000
41
0.008000
0
VERTEX
8
1
10
0.832322
20
1.957322
0
VERTEX
8
1
10
0.867678
20
1.992678
0
SEQEND
8
1
0
POLYLINE
8
1
66
1
40
0.008000
41
0.008000
0
VERTEX
8
1
10
0.850000
20
1.800000
0
VERTEX
8
1
10
0.850000
20
1.750000
0
SEQEND
8
1
0
POLYLINE
8
1
66
1
40
0.008000
41
0.008000
0
VERTEX
8
1
10
0.825000
20
1.775000
0
VERTEX
8
1
10
0.875000
20
1.775000
0
SEQEND
8
1
0
POLYLINE
8
1
66
1
40
0.008000
41
0.008000
0
VERTEX
8
1
10
0.832322
20
1.792678
0
VERTEX
8
1
10
0.867678
20
1.757322
0
SEQEND
8
1
0
POLYLINE
8
1
66
1
40
0.008000
41
0.008000
0
VERTEX
8
1
10
0.832322
20
1.757322
0
VERTEX
8
1
10
0.867678
20
1.792678
0
SEQEND
8
1
0
POLYLINE
8
1
66
1
40
0.008000
41
0.008000
0
VERTEX
8
1
10
0.850000
20
1.600000
0
VERTEX
8
1
10
0.850000
20
1.550000
0
SEQEND
8
1
0
POLYLINE
8
1
66
1
40
0.008000
41
0.008000
0
VERTEX
8
1
10
0.825000
20
1.575000
0
VERTEX
8
1
10
0.875000
20
1.575000
0
SEQEND
8
1
0
POLYLINE
8
1
66
1
40
0.008000
41
0.008000
0
VERTEX
8
1
10
0.832322
20
1.592678
0
VERTEX
8
1
10
0.867678
20
1.557322
0
SEQEND
8
1
0
POLYLINE
8
1
66
1
40
0.008000
41
0.008000
0
VERTEX
8
1
10
0.832322
20
1.557322
0
VERTEX
8
1
10
0.867678
20
1.592678
0
SEQEND
8
1
0
POLYLINE
8
1
66
1
40
0.008000
41
0.008000
0
VERTEX
8
1
10
0.850000
20
1.400000
0
VERTEX
8
1
10
0.850000
20
1.350000
0
SEQEND
8
1
0
POLYLINE
8
1
66
1
40
0.008000
41
0.008000
0
VERTEX
8
1
10
0.825000
20
1.375000
0
VERTEX
8
1
10
0.875000
20
1.375000
0
SEQEND
8
1
0
POLYLINE
8
1
66
1
40
0.008000
41
0.008000
0
VERTEX
8
1
10
0.832322
20
1.392678
0
VERTEX
8
1
10
0.867678
20
1.357322
0
SEQEND
8
1
0
POLYLINE
8
1
66
1
40
0.008000
41
0.008000
0
VERTEX
8
1
10
0.832322
20
1.357322
0
VERTEX
8
1
10
0.867678
20
1.392678
0
SEQEND
8
1
0
POLYLINE
8
1
66
1
40
0.008000
41
0.008000
0
VERTEX
8
1
10
0.975000
20
1.800000
0
VERTEX
8
1
10
0.975000
20
1.750000
0
SEQEND
8
1
0
POLYLINE
8
1
66
1
40
0.008000
41
0.008000
0
VERTEX
8
1
10
0.950000
20
1.775000
0
VERTEX
8
1
10
1.000000
20
1.775000
0
SEQEND
8
1
0
POLYLINE
8
1
66
1
40
0.008000
41
0.008000
0
VERTEX
8
1
10
0.957322
20
1.792678
0
VERTEX
8
1
10
0.992678
20
1.757322
0
SEQEND
8
1
0
POLYLINE
8
1
66
1
40
0.008000
41
0.008000
0
VERTEX
8
1
10
0.957322
20
1.757322
0
VERTEX
8
1
10
0.992678
20
1.792678
0
SEQEND
8
1
0
POLYLINE
8
1
66
1
40
0.008000
41
0.008000
0
VERTEX
8
1
10
0.975000
20
1.600000
0
VERTEX
8
1
10
0.975000
20
1.550000
0
SEQEND
8
1
0
POLYLINE
8
1
66
1
40
0.008000
41
0.008000
0
VERTEX
8
1
10
0.950000
20
1.575000
0
VERTEX
8
1
10
1.000000
20
1.575000
0
SEQEND
8
1
0
POLYLINE
8
1
66
1
40
0.008000
41
0.008000
0
VERTEX
8
1
10
0.957322
20
1.592678
0
VERTEX
8
1
10
0.992678
20
1.557322
0
SEQEND
8
1
0
POLYLINE
8
1
66
1
40
0.008000
41
0.008000
0
VERTEX
8
1
10
0.957322
20
1.557322
0
VERTEX
8
1
10
0.992678
20
1.592678
0
SEQEND
8
1
0
POLYLINE
8
1
66
1
40
0.008000
41
0.008000
0
VERTEX
8
1
10
0.975000
20
1.400000
0
VERTEX
8
1
10
0.975000
20
1.350000
0
SEQEND
8
1
0
POLYLINE
8
1
66
1
40
0.008000
41
0.008000
0
VERTEX
8
1
10
0.950000
20
1.375000
0
VERTEX
8
1
10
1.000000
20
1.375000
0
SEQEND
8
1
0
POLYLINE
8
1
66
1
40
0.008000
41
0.008000
0
VERTEX
8
1
10
0.957322
20
1.392678
0
VERTEX
8
1
10
0.992678
20
1.357322
0
SEQEND
8
1
0
POLYLINE
8
1
66
1
40
0.008000
41
0.008000
0
VERTEX
8
1
10
0.957322
20
1.357322
0
VERTEX
8
1
10
0.992678
20
1.392678
0
SEQEND
8
1
0
POLYLINE
8
1
66
1
40
0.008000
41
0.008000
0
VERTEX
8
1
10
0.975000
20
1.200000
0
VERTEX
8
1
10
0.975000
20
1.150000
0
SEQEND
8
1
0
POLYLINE
8
1
66
1
40
0.008000
41
0.008000
0
VERTEX
8
1
10
0.950000
20
1.175000
0
VERTEX
8
1
10
1.000000
20
1.175000
0
SEQEND
8
1
0
POLYLINE
8
1
66
1
40
0.008000
41
0.008000
0
VERTEX
8
1
10
0.957322
20
1.192678
0
VERTEX
8
1
10
0.992678
20
1.157322
0
SEQEND
8
1
0
POLYLINE
8
1
66
1
40
0.008000
41
0.008000
0
VERTEX
8
1
10
0.957322
20
1.157322
0
VERTEX
8
1
10
0.992678
20
1.192678
0
SEQEND
8
1
0
POLYLINE
8
1
66
1
40
0.008000
41
0.008000
0
VERTEX
8
1
10
0.289370
20
1.900000
0
VERTEX
8
1
10
0.289370
20
1.850000
0
SEQEND
8
1
0
POLYLINE
8
1
66
1
40
0.008000
41
0.008000
0
VERTEX
8
1
10
0.264370
20
1.875000
0
VERTEX
8
1
10
0.314370
20
1.875000
0
SEQEND
8
1
0
POLYLINE
8
1
66
1
40
0.008000
41
0.008000
0
VERTEX
8
1
10
0.210630
20
1.900000
0
VERTEX
8
1
10
0.210630
20
1.850000
0
SEQEND
8
1
0
POLYLINE
8
1
66
1
40
0.008000
41
0.008000
0
VERTEX
8
1
10
0.185630
20
1.875000
0
VERTEX
8
1
10
0.235630
20
1.875000
0
SEQEND
8
1
0
POLYLINE
8
1
66
1
40
0.008000
41
0.008000
0
VERTEX
8
1
10
0.075000
20
1.525000
0
VERTEX
8
1
10
0.075000
20
1.475000
0
SEQEND
8
1
0
POLYLINE
8
1
66
1
40
0.008000
41
0.008000
0
VERTEX
8
1
10
0.050000
20
1.500000
0
VERTEX
8
1
10
0.100000
20
1.500000
0
SEQEND
8
1
0
POLYLINE
8
1
66
1
40
0.008000
41
0.008000
0
VERTEX
8
1
10
0.057322
20
1.517678
0
VERTEX
8
1
10
0.092678
20
1.482322
0
SEQEND
8
1
0
POLYLINE
8
1
66
1
40
0.008000
41
0.008000
0
VERTEX
8
1
10
0.057322
20
1.482322
0
VERTEX
8
1
10
0.092678
20
1.517678
0
SEQEND
8
1
0
POLYLINE
8
1
66
1
40
0.008000
41
0.008000
0
VERTEX
8
1
10
0.075000
20
1.325000
0
VERTEX
8
1
10
0.075000
20
1.275000
0
SEQEND
8
1
0
POLYLINE
8
1
66
1
40
0.008000
41
0.008000
0
VERTEX
8
1
10
0.050000
20
1.300000
0
VERTEX
8
1
10
0.100000
20
1.300000
0
SEQEND
8
1
0
POLYLINE
8
1
66
1
40
0.008000
41
0.008000
0
VERTEX
8
1
10
0.057322
20
1.317678
0
VERTEX
8
1
10
0.092678
20
1.282322
0
SEQEND
8
1
0
POLYLINE
8
1
66
1
40
0.008000
41
0.008000
0
VERTEX
8
1
10
0.057322
20
1.282322
0
VERTEX
8
1
10
0.092678
20
1.317678
0
SEQEND
8
1
0
POLYLINE
8
0
66
1
40
0.005000
41
0.005000
0
VERTEX
8
0
10
-0.005000
20
-0.690000
0
VERTEX
8
0
10
0.996000
20
-0.690000
0
VERTEX
8
0
10
0.996000
20
-0.105000
0
VERTEX
8
0
10
-0.005000
20
-0.105000
0
VERTEX
8
0
10
-0.005000
20
-0.690000
0
SEQEND
8
0
0
POLYLINE
8
0
66
1
40
0.002500
41
0.002500
0
VERTEX
8
0
10
0.179001
20
-0.105000
0
VERTEX
8
0
10
0.179001
20
-0.690000
0
SEQEND
8
0
0
POLYLINE
8
0
66
1
40
0.002500
41
0.002500
0
VERTEX
8
0
10
0.459001
20
-0.105000
0
VERTEX
8
0
10
0.459001
20
-0.690000
0
SEQEND
8
0
0
POLYLINE
8
0
66
1
40
0.002500
41
0.002500
0
VERTEX
8
0
10
0.787001
20
-0.105000
0
VERTEX
8
0
10
0.787001
20
-0.690000
0
SEQEND
8
0
0
POLYLINE
8
0
66
1
40
0.002500
41
0.002500
0
VERTEX
8
0
10
-0.005000
20
-0.212500
0
VERTEX
8
0
10
0.996000
20
-0.212500
0
SEQEND
8
0
0
POLYLINE
8
0
66
1
40
0.002500
41
0.002500
0
VERTEX
8
0
10
-0.005000
20
-0.307500
0
VERTEX
8
0
10
0.996000
20
-0.307500
0
SEQEND
8
0
0
POLYLINE
8
0
66
1
40
0.002500
41
0.002500
0
VERTEX
8
0
10
-0.005000
20
-0.402500
0
VERTEX
8
0
10
0.996000
20
-0.402500
0
SEQEND
8
0
0
POLYLINE
8
0
66
1
40
0.002500
41
0.002500
0
VERTEX
8
0
10
-0.005000
20
-0.497500
0
VERTEX
8
0
10
0.996000
20
-0.497500
0
SEQEND
8
0
0
POLYLINE
8
0
66
1
40
0.002500
41
0.002500
0
VERTEX
8
0
10
-0.005000
20
-0.592500
0
VERTEX
8
0
10
0.996000
20
-0.592500
0
SEQEND
8
0
0
TEXT
8
0
10
0.020000
20
-0.181500
40
0.048000
41
1.000000
1
SYM
0
TEXT
8
0
10
0.204000
20
-0.181500
40
0.048000
41
1.000000
1
SIZE
0
TEXT
8
0
10
0.484000
20
-0.181500
40
0.048000
41
1.000000
1
PLATED
0
TEXT
8
0
10
0.812000
20
-0.181500
40
0.048000
41
1.000000
1
QTY
0
POLYLINE
8
0
66
1
40
0.008000
41
0.008000
0
VERTEX
8
0
10
0.092000
20
-0.232500
0
VERTEX
8
0
10
0.092000
20
-0.282500
0
SEQEND
8
0
0
POLYLINE
8
0
66
1
40
0.008000
41
0.008000
0
VERTEX
8
0
10
0.067000
20
-0.257500
0
VERTEX
8
0
10
0.117000
20
-0.257500
0
SEQEND
8
0
0
TEXT
8
0
10
0.211500
20
-0.277500
40
0.040000
41
1.000000
1
0.75mm
0
TEXT
8
0
10
0.496500
20
-0.277500
40
0.040000
41
1.000000
1
YES
0
TEXT
8
0
10
0.829500
20
-0.277500
40
0.040000
41
1.000000
1
2
0
POLYLINE
8
0
66
1
40
0.008000
41
0.008000
0
VERTEX
8
0
10
0.074322
20
-0.334822
0
VERTEX
8
0
10
0.109678
20
-0.370178
0
SEQEND
8
0
0
POLYLINE
8
0
66
1
40
0.008000
41
0.008000
0
VERTEX
8
0
10
0.074322
20
-0.370178
0
VERTEX
8
0
10
0.109678
20
-0.334822
0
SEQEND
8
0
0
TEXT
8
0
10
0.211500
20
-0.372500
40
0.040000
41
1.000000
1
3mm
0
TEXT
8
0
10
0.496500
20
-0.372500
40
0.040000
41
1.000000
1
YES
0
TEXT
8
0
10
0.829500
20
-0.372500
40
0.040000
41
1.000000
1
2
0
POLYLINE
8
0
66
1
40
0.008000
41
0.008000
0
VERTEX
8
0
10
0.092000
20
-0.422500
0
VERTEX
8
0
10
0.092000
20
-0.472500
0
SEQEND
8
0
0
POLYLINE
8
0
66
1
40
0.008000
41
0.008000
0
VERTEX
8
0
10
0.067000
20
-0.447500
0
VERTEX
8
0
10
0.117000
20
-0.447500
0
SEQEND
8
0
0
POLYLINE
8
0
66
1
40
0.008000
41
0.008000
0
VERTEX
8
0
10
0.074322
20
-0.429822
0
VERTEX
8
0
10
0.109678
20
-0.465178
0
SEQEND
8
0
0
POLYLINE
8
0
66
1
40
0.008000
41
0.008000
0
VERTEX
8
0
10
0.074322
20
-0.465178
0
VERTEX
8
0
10
0.109678
20
-0.429822
0
SEQEND
8
0
0
TEXT
8
0
10
0.211500
20
-0.467500
40
0.040000
41
1.000000
1
30th
0
TEXT
8
0
10
0.496500
20
-0.467500
40
0.040000
41
1.000000
1
YES
0
TEXT
8
0
10
0.829500
20
-0.467500
40
0.040000
41
1.000000
1
26
0
CIRCLE
8
0
10
0.092000
20
-0.542500
40
0.025000
0
POLYLINE
8
0
66
1
40
0.008000
41
0.008000
0
VERTEX
8
0
10
0.092000
20
-0.517500
0
VERTEX
8
0
10
0.092000
20
-0.567500
0
SEQEND
8
0
0
POLYLINE
8
0
66
1
40
0.008000
41
0.008000
0
VERTEX
8
0
10
0.067000
20
-0.542500
0
VERTEX
8
0
10
0.117000
20
-0.542500
0
SEQEND
8
0
0
TEXT
8
0
10
0.211500
20
-0.562500
40
0.040000
41
1.000000
1
35th
0
TEXT
8
0
10
0.496500
20
-0.562500
40
0.040000
41
1.000000
1
YES
0
TEXT
8
0
10
0.829500
20
-0.562500
40
0.040000
41
1.000000
1
19
0
CIRCLE
8
0
10
0.092000
20
-0.637500
40
0.025000
0
POLYLINE
8
0
66
1
40
0.008000
41
0.008000
0
VERTEX
8
0
10
0.074322
20
-0.619822
0
VERTEX
8
0
10
0.109678
20
-0.655178
0
SEQEND
8
0
0
POLYLINE
8
0
66
1
40
0.008000
41
0.008000
0
VERTEX
8
0
10
0.074322
20
-0.655178
0
VERTEX
8
0
10
0.109678
20
-0.619822
0
SEQEND
8
0
0
TEXT
8
0
10
0.211500
20
-0.657500
40
0.040000
41
1.000000
1
40th
0
TEXT
8
0
10
0.496500
20
-0.657500
40
0.040000
41
1.000000
1
YES
0
TEXT
8
0
10
0.829500
20
-0.657500
40
0.040000
41
1.000000
1
4
0
ENDSEC
0
EOF

